<mxfile host="app.diagrams.net" modified="2023-08-28T13:58:04.218Z" agent="Mozilla/5.0 (Windows NT 10.0; Win64; x64) AppleWebKit/537.36 (KHTML, like Gecko) Chrome/116.0.0.0 Safari/537.36" etag="k4AhnCjXkGmpLlDljkZC" version="21.6.9" type="device">
  <diagram name="Pagina-1" id="UoyJ0l-6ss4mj00balDl">
    <mxGraphModel dx="1562" dy="1991" grid="1" gridSize="10" guides="1" tooltips="1" connect="1" arrows="1" fold="1" page="1" pageScale="1" pageWidth="827" pageHeight="1169" math="0" shadow="0">
      <root>
        <mxCell id="0" />
        <mxCell id="1" parent="0" />
        <mxCell id="3m5Gk--VPzneLx9NHe0J-299" value="" style="endArrow=none;dashed=1;html=1;rounded=0;" parent="1" edge="1">
          <mxGeometry width="50" height="50" relative="1" as="geometry">
            <mxPoint x="30" y="6482" as="sourcePoint" />
            <mxPoint x="150" y="5832" as="targetPoint" />
            <Array as="points">
              <mxPoint x="40" y="5882" />
            </Array>
          </mxGeometry>
        </mxCell>
        <mxCell id="3m5Gk--VPzneLx9NHe0J-300" value="" style="endArrow=none;dashed=1;html=1;rounded=0;" parent="1" edge="1">
          <mxGeometry width="50" height="50" relative="1" as="geometry">
            <mxPoint x="30" y="6482" as="sourcePoint" />
            <mxPoint x="810" y="5832" as="targetPoint" />
            <Array as="points">
              <mxPoint x="810" y="6482" />
            </Array>
          </mxGeometry>
        </mxCell>
        <mxCell id="3m5Gk--VPzneLx9NHe0J-301" value="" style="endArrow=none;dashed=1;html=1;rounded=0;" parent="1" edge="1">
          <mxGeometry width="50" height="50" relative="1" as="geometry">
            <mxPoint x="150" y="5832" as="sourcePoint" />
            <mxPoint x="810" y="5832" as="targetPoint" />
            <Array as="points">
              <mxPoint x="390" y="5832" />
            </Array>
          </mxGeometry>
        </mxCell>
        <mxCell id="3m5Gk--VPzneLx9NHe0J-302" value="Vnet1" style="rounded=1;whiteSpace=wrap;html=1;fillColor=#FFFFFF;strokeColor=#000000;gradientColor=none;arcSize=1;fontColor=#FFFFFF;" parent="1" vertex="1">
          <mxGeometry x="165" y="5891.110000000001" width="200" height="400" as="geometry" />
        </mxCell>
        <mxCell id="3m5Gk--VPzneLx9NHe0J-304" value="Vnet2" style="rounded=1;whiteSpace=wrap;html=1;fillColor=#FFFFFF;arcSize=1;fontColor=#FFFFFF;" parent="1" vertex="1">
          <mxGeometry x="530" y="5891.110000000001" width="200" height="400" as="geometry" />
        </mxCell>
        <mxCell id="3m5Gk--VPzneLx9NHe0J-305" value="" style="edgeStyle=orthogonalEdgeStyle;rounded=0;orthogonalLoop=1;jettySize=auto;html=1;" parent="1" source="3m5Gk--VPzneLx9NHe0J-307" target="3m5Gk--VPzneLx9NHe0J-302" edge="1">
          <mxGeometry relative="1" as="geometry" />
        </mxCell>
        <mxCell id="3m5Gk--VPzneLx9NHe0J-306" style="edgeStyle=orthogonalEdgeStyle;rounded=0;orthogonalLoop=1;jettySize=auto;html=1;entryX=0.5;entryY=1;entryDx=0;entryDy=0;startArrow=classic;startFill=1;" parent="1" source="3m5Gk--VPzneLx9NHe0J-307" target="3m5Gk--VPzneLx9NHe0J-304" edge="1">
          <mxGeometry relative="1" as="geometry" />
        </mxCell>
        <mxCell id="3m5Gk--VPzneLx9NHe0J-307" value="storage account&lt;br&gt;Blob" style="rounded=1;whiteSpace=wrap;html=1;" parent="1" vertex="1">
          <mxGeometry x="120" y="6325.5" width="290" height="115" as="geometry" />
        </mxCell>
        <mxCell id="3m5Gk--VPzneLx9NHe0J-309" value="" style="edgeStyle=orthogonalEdgeStyle;rounded=0;orthogonalLoop=1;jettySize=auto;html=1;exitX=0.5;exitY=0;exitDx=0;exitDy=0;startArrow=classic;startFill=1;" parent="1" source="3m5Gk--VPzneLx9NHe0J-310" edge="1">
          <mxGeometry relative="1" as="geometry">
            <mxPoint x="440" y="5852" as="targetPoint" />
          </mxGeometry>
        </mxCell>
        <mxCell id="3m5Gk--VPzneLx9NHe0J-310" value="&lt;br&gt;&lt;br&gt;&lt;br&gt;&lt;br&gt;Webserver&lt;br&gt;vnet-web" style="rounded=1;whiteSpace=wrap;html=1;" parent="1" vertex="1">
          <mxGeometry x="190" y="5912" width="150" height="150" as="geometry" />
        </mxCell>
        <mxCell id="3m5Gk--VPzneLx9NHe0J-311" style="edgeStyle=orthogonalEdgeStyle;rounded=0;orthogonalLoop=1;jettySize=auto;html=1;exitX=0.5;exitY=0;exitDx=0;exitDy=0;startArrow=classic;startFill=1;endArrow=none;endFill=0;" parent="1" source="3m5Gk--VPzneLx9NHe0J-312" target="3m5Gk--VPzneLx9NHe0J-327" edge="1">
          <mxGeometry relative="1" as="geometry" />
        </mxCell>
        <mxCell id="3m5Gk--VPzneLx9NHe0J-312" value="&lt;br&gt;&lt;br&gt;&lt;br&gt;&lt;br&gt;Management&lt;br&gt;vnet-mngt" style="rounded=1;whiteSpace=wrap;html=1;" parent="1" vertex="1">
          <mxGeometry x="555" y="6122" width="150" height="150" as="geometry" />
        </mxCell>
        <mxCell id="3m5Gk--VPzneLx9NHe0J-313" value="Notes:&lt;br&gt;MVP v1.0&lt;br&gt;resource group&lt;br&gt;storage account met blob&lt;br&gt;2 vnets&lt;br&gt;2 subnets, 1 per Vnet&lt;br&gt;Subnet1 10.20.20.0/24&amp;nbsp;&lt;br&gt;Subnet2 10.10.10.0/24&amp;nbsp;&lt;br&gt;Webserver IPs:&lt;br&gt;Public: x.x.x.x&amp;nbsp;&lt;br&gt;Private: 10.20.20.1&lt;br&gt;Management server IP:&lt;br&gt;Public: x.x.x.x&lt;br&gt;Private: 10.10.10.1&lt;br&gt;&lt;br&gt;Peering tussen Vnets&lt;br&gt;Key vault&amp;nbsp;&lt;br&gt;Back-up" style="whiteSpace=wrap;html=1;aspect=fixed;align=left;" parent="1" vertex="1">
          <mxGeometry x="98" y="6562" width="310" height="310" as="geometry" />
        </mxCell>
        <mxCell id="3m5Gk--VPzneLx9NHe0J-314" value="" style="image;aspect=fixed;html=1;points=[];align=center;fontSize=12;image=img/lib/azure2/compute/Virtual_Machine.svg;" parent="1" vertex="1">
          <mxGeometry x="603.05" y="6142" width="53.91" height="50" as="geometry" />
        </mxCell>
        <mxCell id="3m5Gk--VPzneLx9NHe0J-315" value="Availability Zone 1" style="rounded=1;whiteSpace=wrap;html=1;fillColor=none;strokeColor=#66B2FF;strokeWidth=2;collapsible=1;" parent="1" vertex="1" collapsed="1">
          <mxGeometry x="90" y="5897" width="50" height="40" as="geometry">
            <mxRectangle x="80" y="125" width="700" height="180" as="alternateBounds" />
          </mxGeometry>
        </mxCell>
        <mxCell id="3m5Gk--VPzneLx9NHe0J-316" value="Availability zone 2" style="rounded=1;whiteSpace=wrap;html=1;fillColor=none;strokeColor=#66B2FF;strokeWidth=2;backgroundOutline=0;collapsible=1;" parent="1" vertex="1" collapsed="1">
          <mxGeometry x="90" y="6112" width="50" height="40" as="geometry">
            <mxRectangle x="80" y="340" width="700" height="170" as="alternateBounds" />
          </mxGeometry>
        </mxCell>
        <mxCell id="3m5Gk--VPzneLx9NHe0J-317" value="" style="image;aspect=fixed;html=1;points=[];align=center;fontSize=12;image=img/lib/azure2/compute/Virtual_Machine.svg;" parent="1" vertex="1">
          <mxGeometry x="238.05" y="5932" width="53.91" height="50" as="geometry" />
        </mxCell>
        <mxCell id="3m5Gk--VPzneLx9NHe0J-318" value="" style="endArrow=none;dashed=1;html=1;dashPattern=1 3;strokeWidth=2;rounded=0;" parent="1" edge="1">
          <mxGeometry width="50" height="50" relative="1" as="geometry">
            <mxPoint x="90" y="5852" as="sourcePoint" />
            <mxPoint x="50" y="5812" as="targetPoint" />
          </mxGeometry>
        </mxCell>
        <mxCell id="3m5Gk--VPzneLx9NHe0J-321" value="" style="image;aspect=fixed;html=1;points=[];align=center;fontSize=12;image=img/lib/azure2/storage/Storage_Accounts.svg;" parent="1" vertex="1">
          <mxGeometry x="147.5" y="6358.5" width="65" height="52" as="geometry" />
        </mxCell>
        <mxCell id="3m5Gk--VPzneLx9NHe0J-322" value="" style="image;aspect=fixed;html=1;points=[];align=center;fontSize=12;image=img/lib/azure2/general/Blob_Block.svg;" parent="1" vertex="1">
          <mxGeometry x="330" y="6357" width="65" height="52" as="geometry" />
        </mxCell>
        <mxCell id="3m5Gk--VPzneLx9NHe0J-323" value="" style="image;aspect=fixed;html=1;points=[];align=center;fontSize=12;image=img/lib/azure2/security/Key_Vaults.svg;" parent="1" vertex="1">
          <mxGeometry x="562.05" y="6400" width="51" height="51" as="geometry" />
        </mxCell>
        <mxCell id="3m5Gk--VPzneLx9NHe0J-324" value="" style="image;aspect=fixed;html=1;points=[];align=center;fontSize=12;image=img/lib/azure2/networking/Network_Security_Groups.svg;" parent="1" vertex="1">
          <mxGeometry x="190" y="6040" width="31.29" height="38" as="geometry" />
        </mxCell>
        <mxCell id="3m5Gk--VPzneLx9NHe0J-325" value="" style="image;aspect=fixed;html=1;points=[];align=center;fontSize=12;image=img/lib/azure2/networking/Network_Security_Groups.svg;" parent="1" vertex="1">
          <mxGeometry x="680" y="6112" width="31.29" height="38" as="geometry" />
        </mxCell>
        <mxCell id="3m5Gk--VPzneLx9NHe0J-326" value="" style="image;aspect=fixed;html=1;points=[];align=center;fontSize=12;image=img/lib/azure2/storage/Recovery_Services_Vaults.svg;" parent="1" vertex="1">
          <mxGeometry x="458" y="6408" width="49.45" height="43" as="geometry" />
        </mxCell>
        <mxCell id="3m5Gk--VPzneLx9NHe0J-327" value="Internet" style="text;html=1;align=center;verticalAlign=middle;resizable=0;points=[];autosize=1;strokeColor=none;fillColor=none;" parent="1" vertex="1">
          <mxGeometry x="410" y="5830" width="60" height="30" as="geometry" />
        </mxCell>
        <mxCell id="3m5Gk--VPzneLx9NHe0J-328" value="" style="image;aspect=fixed;html=1;points=[];align=center;fontSize=12;image=img/lib/azure2/general/Resource_Groups.svg;" parent="1" vertex="1">
          <mxGeometry x="32" y="5790" width="68" height="64" as="geometry" />
        </mxCell>
        <mxCell id="qE7HTw5Iz3dnXzz-xxV6-1" value="Dit zijn de&amp;nbsp; stappen die nodig&amp;nbsp; zijn om tot het MVP te komen:&lt;br&gt;Stap&amp;nbsp;" style="text;strokeColor=none;align=center;fillColor=none;html=1;verticalAlign=middle;whiteSpace=wrap;rounded=0;" vertex="1" parent="1">
          <mxGeometry x="288" y="-1150" width="252" height="80" as="geometry" />
        </mxCell>
        <mxCell id="qE7HTw5Iz3dnXzz-xxV6-85" value="" style="rounded=0;whiteSpace=wrap;html=1;" vertex="1" parent="1">
          <mxGeometry x="645.64" y="6325.5" width="120" height="123" as="geometry" />
        </mxCell>
        <mxCell id="qE7HTw5Iz3dnXzz-xxV6-86" value="IP address:&lt;br&gt;10.10.0.0/16&lt;br&gt;10.20.0.0/16&lt;br&gt;Subnets:&lt;br&gt;10.10.10.0/24&lt;br&gt;10.20.20.0/24&lt;br&gt;" style="text;html=1;align=center;verticalAlign=middle;resizable=0;points=[];autosize=1;strokeColor=none;fillColor=none;" vertex="1" parent="1">
          <mxGeometry x="655.64" y="6338.5" width="100" height="100" as="geometry" />
        </mxCell>
        <mxCell id="qE7HTw5Iz3dnXzz-xxV6-87" value="" style="endArrow=none;dashed=1;html=1;rounded=0;" edge="1" parent="1">
          <mxGeometry width="50" height="50" relative="1" as="geometry">
            <mxPoint x="38" y="-348" as="sourcePoint" />
            <mxPoint x="158" y="-998" as="targetPoint" />
            <Array as="points">
              <mxPoint x="48" y="-948" />
            </Array>
          </mxGeometry>
        </mxCell>
        <mxCell id="qE7HTw5Iz3dnXzz-xxV6-88" value="" style="endArrow=none;dashed=1;html=1;rounded=0;" edge="1" parent="1">
          <mxGeometry width="50" height="50" relative="1" as="geometry">
            <mxPoint x="38" y="-348" as="sourcePoint" />
            <mxPoint x="818" y="-998" as="targetPoint" />
            <Array as="points">
              <mxPoint x="818" y="-348" />
            </Array>
          </mxGeometry>
        </mxCell>
        <mxCell id="qE7HTw5Iz3dnXzz-xxV6-89" value="" style="endArrow=none;dashed=1;html=1;rounded=0;" edge="1" parent="1">
          <mxGeometry width="50" height="50" relative="1" as="geometry">
            <mxPoint x="158" y="-998" as="sourcePoint" />
            <mxPoint x="818" y="-998" as="targetPoint" />
            <Array as="points">
              <mxPoint x="398" y="-998" />
            </Array>
          </mxGeometry>
        </mxCell>
        <mxCell id="qE7HTw5Iz3dnXzz-xxV6-90" value="Vnet1" style="rounded=1;whiteSpace=wrap;html=1;fillColor=#FFFFFF;strokeColor=#000000;gradientColor=none;arcSize=1;fontColor=#FFFFFF;" vertex="1" parent="1">
          <mxGeometry x="173" y="-938.8899999999994" width="200" height="400" as="geometry" />
        </mxCell>
        <mxCell id="qE7HTw5Iz3dnXzz-xxV6-91" value="Peering" style="edgeStyle=orthogonalEdgeStyle;rounded=0;orthogonalLoop=1;jettySize=auto;html=1;exitX=0;exitY=0.5;exitDx=0;exitDy=0;entryX=1;entryY=0.5;entryDx=0;entryDy=0;endArrow=classic;endFill=1;startArrow=classic;startFill=1;strokeColor=#000000;" edge="1" parent="1">
          <mxGeometry relative="1" as="geometry">
            <mxPoint x="538" y="-738.4899999999998" as="sourcePoint" />
            <mxPoint x="373" y="-738.4899999999998" as="targetPoint" />
            <Array as="points">
              <mxPoint x="430.25" y="-738.4899999999998" />
              <mxPoint x="430.25" y="-738.4899999999998" />
            </Array>
          </mxGeometry>
        </mxCell>
        <mxCell id="qE7HTw5Iz3dnXzz-xxV6-92" value="Vnet2" style="rounded=1;whiteSpace=wrap;html=1;fillColor=#FFFFFF;arcSize=1;fontColor=#FFFFFF;" vertex="1" parent="1">
          <mxGeometry x="538" y="-938.8899999999994" width="200" height="400" as="geometry" />
        </mxCell>
        <mxCell id="qE7HTw5Iz3dnXzz-xxV6-93" value="" style="edgeStyle=orthogonalEdgeStyle;rounded=0;orthogonalLoop=1;jettySize=auto;html=1;" edge="1" parent="1" source="qE7HTw5Iz3dnXzz-xxV6-95" target="qE7HTw5Iz3dnXzz-xxV6-90">
          <mxGeometry relative="1" as="geometry" />
        </mxCell>
        <mxCell id="qE7HTw5Iz3dnXzz-xxV6-94" style="edgeStyle=orthogonalEdgeStyle;rounded=0;orthogonalLoop=1;jettySize=auto;html=1;entryX=0.5;entryY=1;entryDx=0;entryDy=0;startArrow=classic;startFill=1;" edge="1" parent="1" source="qE7HTw5Iz3dnXzz-xxV6-95" target="qE7HTw5Iz3dnXzz-xxV6-92">
          <mxGeometry relative="1" as="geometry" />
        </mxCell>
        <mxCell id="qE7HTw5Iz3dnXzz-xxV6-95" value="storage account&lt;br&gt;Blob" style="rounded=1;whiteSpace=wrap;html=1;" vertex="1" parent="1">
          <mxGeometry x="128" y="-504.5" width="290" height="115" as="geometry" />
        </mxCell>
        <mxCell id="qE7HTw5Iz3dnXzz-xxV6-96" value="management connection" style="edgeStyle=orthogonalEdgeStyle;rounded=0;orthogonalLoop=1;jettySize=auto;html=1;startArrow=classic;startFill=1;" edge="1" parent="1" source="qE7HTw5Iz3dnXzz-xxV6-98" target="qE7HTw5Iz3dnXzz-xxV6-100">
          <mxGeometry relative="1" as="geometry">
            <Array as="points">
              <mxPoint x="273" y="-638" />
            </Array>
          </mxGeometry>
        </mxCell>
        <mxCell id="qE7HTw5Iz3dnXzz-xxV6-97" value="" style="edgeStyle=orthogonalEdgeStyle;rounded=0;orthogonalLoop=1;jettySize=auto;html=1;exitX=0.5;exitY=0;exitDx=0;exitDy=0;startArrow=classic;startFill=1;" edge="1" parent="1" source="qE7HTw5Iz3dnXzz-xxV6-98">
          <mxGeometry relative="1" as="geometry">
            <mxPoint x="448" y="-978" as="targetPoint" />
          </mxGeometry>
        </mxCell>
        <mxCell id="qE7HTw5Iz3dnXzz-xxV6-98" value="&lt;br&gt;&lt;br&gt;&lt;br&gt;&lt;br&gt;Webserver&lt;br&gt;vnet-web" style="rounded=1;whiteSpace=wrap;html=1;" vertex="1" parent="1">
          <mxGeometry x="198" y="-918" width="150" height="150" as="geometry" />
        </mxCell>
        <mxCell id="qE7HTw5Iz3dnXzz-xxV6-99" style="edgeStyle=orthogonalEdgeStyle;rounded=0;orthogonalLoop=1;jettySize=auto;html=1;exitX=0.5;exitY=0;exitDx=0;exitDy=0;startArrow=classic;startFill=1;endArrow=none;endFill=0;" edge="1" parent="1" source="qE7HTw5Iz3dnXzz-xxV6-100" target="qE7HTw5Iz3dnXzz-xxV6-114">
          <mxGeometry relative="1" as="geometry" />
        </mxCell>
        <mxCell id="qE7HTw5Iz3dnXzz-xxV6-100" value="&lt;br&gt;&lt;br&gt;&lt;br&gt;&lt;br&gt;Management&lt;br&gt;vnet-mngt" style="rounded=1;whiteSpace=wrap;html=1;" vertex="1" parent="1">
          <mxGeometry x="563" y="-708" width="150" height="150" as="geometry" />
        </mxCell>
        <mxCell id="qE7HTw5Iz3dnXzz-xxV6-101" value="" style="image;aspect=fixed;html=1;points=[];align=center;fontSize=12;image=img/lib/azure2/compute/Virtual_Machine.svg;" vertex="1" parent="1">
          <mxGeometry x="611.05" y="-688" width="53.91" height="50" as="geometry" />
        </mxCell>
        <mxCell id="qE7HTw5Iz3dnXzz-xxV6-102" value="Availability Zone 1" style="rounded=1;whiteSpace=wrap;html=1;fillColor=none;strokeColor=#66B2FF;strokeWidth=2;collapsible=1;" vertex="1" collapsed="1" parent="1">
          <mxGeometry x="98" y="-933" width="50" height="40" as="geometry">
            <mxRectangle x="80" y="125" width="700" height="180" as="alternateBounds" />
          </mxGeometry>
        </mxCell>
        <mxCell id="qE7HTw5Iz3dnXzz-xxV6-103" value="Availability zone 2" style="rounded=1;whiteSpace=wrap;html=1;fillColor=none;strokeColor=#66B2FF;strokeWidth=2;backgroundOutline=0;collapsible=1;" vertex="1" collapsed="1" parent="1">
          <mxGeometry x="98" y="-718" width="50" height="40" as="geometry">
            <mxRectangle x="80" y="340" width="700" height="170" as="alternateBounds" />
          </mxGeometry>
        </mxCell>
        <mxCell id="qE7HTw5Iz3dnXzz-xxV6-104" value="" style="image;aspect=fixed;html=1;points=[];align=center;fontSize=12;image=img/lib/azure2/compute/Virtual_Machine.svg;" vertex="1" parent="1">
          <mxGeometry x="246.05" y="-898" width="53.91" height="50" as="geometry" />
        </mxCell>
        <mxCell id="qE7HTw5Iz3dnXzz-xxV6-105" value="" style="endArrow=none;dashed=1;html=1;dashPattern=1 3;strokeWidth=2;rounded=0;" edge="1" parent="1">
          <mxGeometry width="50" height="50" relative="1" as="geometry">
            <mxPoint x="98" y="-978" as="sourcePoint" />
            <mxPoint x="58" y="-1018" as="targetPoint" />
          </mxGeometry>
        </mxCell>
        <mxCell id="qE7HTw5Iz3dnXzz-xxV6-106" value="" style="image;aspect=fixed;html=1;points=[];align=center;fontSize=12;image=img/lib/azure2/networking/Virtual_Networks.svg;" vertex="1" parent="1">
          <mxGeometry x="338" y="-747.1000000000004" width="30.5" height="18.21" as="geometry" />
        </mxCell>
        <mxCell id="qE7HTw5Iz3dnXzz-xxV6-107" value="" style="image;aspect=fixed;html=1;points=[];align=center;fontSize=12;image=img/lib/azure2/networking/Virtual_Networks.svg;" vertex="1" parent="1">
          <mxGeometry x="548" y="-747.9899999999998" width="30.5" height="18.21" as="geometry" />
        </mxCell>
        <mxCell id="qE7HTw5Iz3dnXzz-xxV6-108" value="" style="image;aspect=fixed;html=1;points=[];align=center;fontSize=12;image=img/lib/azure2/storage/Storage_Accounts.svg;" vertex="1" parent="1">
          <mxGeometry x="155.5" y="-471.5" width="65" height="52" as="geometry" />
        </mxCell>
        <mxCell id="qE7HTw5Iz3dnXzz-xxV6-109" value="" style="image;aspect=fixed;html=1;points=[];align=center;fontSize=12;image=img/lib/azure2/general/Blob_Block.svg;" vertex="1" parent="1">
          <mxGeometry x="338" y="-473" width="65" height="52" as="geometry" />
        </mxCell>
        <mxCell id="qE7HTw5Iz3dnXzz-xxV6-110" value="" style="image;aspect=fixed;html=1;points=[];align=center;fontSize=12;image=img/lib/azure2/security/Key_Vaults.svg;" vertex="1" parent="1">
          <mxGeometry x="570.05" y="-430" width="51" height="51" as="geometry" />
        </mxCell>
        <mxCell id="qE7HTw5Iz3dnXzz-xxV6-111" value="" style="image;aspect=fixed;html=1;points=[];align=center;fontSize=12;image=img/lib/azure2/networking/Network_Security_Groups.svg;" vertex="1" parent="1">
          <mxGeometry x="198" y="-790" width="31.29" height="38" as="geometry" />
        </mxCell>
        <mxCell id="qE7HTw5Iz3dnXzz-xxV6-112" value="" style="image;aspect=fixed;html=1;points=[];align=center;fontSize=12;image=img/lib/azure2/networking/Network_Security_Groups.svg;" vertex="1" parent="1">
          <mxGeometry x="688" y="-718" width="31.29" height="38" as="geometry" />
        </mxCell>
        <mxCell id="qE7HTw5Iz3dnXzz-xxV6-113" value="" style="image;aspect=fixed;html=1;points=[];align=center;fontSize=12;image=img/lib/azure2/storage/Recovery_Services_Vaults.svg;" vertex="1" parent="1">
          <mxGeometry x="466" y="-422" width="49.45" height="43" as="geometry" />
        </mxCell>
        <mxCell id="qE7HTw5Iz3dnXzz-xxV6-114" value="Internet" style="text;html=1;align=center;verticalAlign=middle;resizable=0;points=[];autosize=1;strokeColor=none;fillColor=none;" vertex="1" parent="1">
          <mxGeometry x="418" y="-1000" width="60" height="30" as="geometry" />
        </mxCell>
        <mxCell id="qE7HTw5Iz3dnXzz-xxV6-115" value="" style="image;aspect=fixed;html=1;points=[];align=center;fontSize=12;image=img/lib/azure2/general/Resource_Groups.svg;" vertex="1" parent="1">
          <mxGeometry x="40" y="-1040" width="68" height="64" as="geometry" />
        </mxCell>
        <mxCell id="qE7HTw5Iz3dnXzz-xxV6-116" value="" style="rounded=0;whiteSpace=wrap;html=1;" vertex="1" parent="1">
          <mxGeometry x="653.64" y="-504.5" width="120" height="123" as="geometry" />
        </mxCell>
        <mxCell id="qE7HTw5Iz3dnXzz-xxV6-117" value="IP address:&lt;br&gt;10.10.0.0/16&lt;br&gt;10.20.0.0/16&lt;br&gt;Subnets:&lt;br&gt;10.10.10.0/24&lt;br&gt;10.20.20.0/24&lt;br&gt;" style="text;html=1;align=center;verticalAlign=middle;resizable=0;points=[];autosize=1;strokeColor=none;fillColor=none;" vertex="1" parent="1">
          <mxGeometry x="663.64" y="-491.5" width="100" height="100" as="geometry" />
        </mxCell>
        <mxCell id="qE7HTw5Iz3dnXzz-xxV6-118" value="Het gehele systeem zoals gedefinieerd als MVP" style="text;strokeColor=none;align=center;fillColor=none;html=1;verticalAlign=middle;whiteSpace=wrap;rounded=0;" vertex="1" parent="1">
          <mxGeometry x="253" y="-1040" width="322" height="30" as="geometry" />
        </mxCell>
        <mxCell id="qE7HTw5Iz3dnXzz-xxV6-278" value="" style="endArrow=none;dashed=1;html=1;rounded=0;" edge="1" parent="1">
          <mxGeometry width="50" height="50" relative="1" as="geometry">
            <mxPoint x="38" y="5412" as="sourcePoint" />
            <mxPoint x="158" y="4762" as="targetPoint" />
            <Array as="points">
              <mxPoint x="48" y="4812" />
            </Array>
          </mxGeometry>
        </mxCell>
        <mxCell id="qE7HTw5Iz3dnXzz-xxV6-279" value="" style="endArrow=none;dashed=1;html=1;rounded=0;" edge="1" parent="1">
          <mxGeometry width="50" height="50" relative="1" as="geometry">
            <mxPoint x="38" y="5412" as="sourcePoint" />
            <mxPoint x="818" y="4762" as="targetPoint" />
            <Array as="points">
              <mxPoint x="818" y="5412" />
            </Array>
          </mxGeometry>
        </mxCell>
        <mxCell id="qE7HTw5Iz3dnXzz-xxV6-280" value="" style="endArrow=none;dashed=1;html=1;rounded=0;" edge="1" parent="1">
          <mxGeometry width="50" height="50" relative="1" as="geometry">
            <mxPoint x="158" y="4762" as="sourcePoint" />
            <mxPoint x="818" y="4762" as="targetPoint" />
            <Array as="points">
              <mxPoint x="398" y="4762" />
            </Array>
          </mxGeometry>
        </mxCell>
        <mxCell id="qE7HTw5Iz3dnXzz-xxV6-281" value="Vnet1" style="rounded=1;whiteSpace=wrap;html=1;fillColor=#FFFFFF;strokeColor=#000000;gradientColor=none;arcSize=1;fontColor=#FFFFFF;" vertex="1" parent="1">
          <mxGeometry x="173" y="4821.110000000001" width="200" height="400" as="geometry" />
        </mxCell>
        <mxCell id="qE7HTw5Iz3dnXzz-xxV6-283" value="Vnet2" style="rounded=1;whiteSpace=wrap;html=1;fillColor=#FFFFFF;arcSize=1;fontColor=#FFFFFF;" vertex="1" parent="1">
          <mxGeometry x="538" y="4821.110000000001" width="200" height="400" as="geometry" />
        </mxCell>
        <mxCell id="qE7HTw5Iz3dnXzz-xxV6-284" value="" style="edgeStyle=orthogonalEdgeStyle;rounded=0;orthogonalLoop=1;jettySize=auto;html=1;" edge="1" parent="1" source="qE7HTw5Iz3dnXzz-xxV6-286" target="qE7HTw5Iz3dnXzz-xxV6-281">
          <mxGeometry relative="1" as="geometry" />
        </mxCell>
        <mxCell id="qE7HTw5Iz3dnXzz-xxV6-286" value="storage account&lt;br&gt;Blob" style="rounded=1;whiteSpace=wrap;html=1;" vertex="1" parent="1">
          <mxGeometry x="128" y="5255.5" width="290" height="115" as="geometry" />
        </mxCell>
        <mxCell id="qE7HTw5Iz3dnXzz-xxV6-288" value="" style="edgeStyle=orthogonalEdgeStyle;rounded=0;orthogonalLoop=1;jettySize=auto;html=1;exitX=0.5;exitY=0;exitDx=0;exitDy=0;startArrow=classic;startFill=1;" edge="1" parent="1" source="qE7HTw5Iz3dnXzz-xxV6-289">
          <mxGeometry relative="1" as="geometry">
            <mxPoint x="448" y="4782" as="targetPoint" />
          </mxGeometry>
        </mxCell>
        <mxCell id="qE7HTw5Iz3dnXzz-xxV6-289" value="&lt;br&gt;&lt;br&gt;&lt;br&gt;&lt;br&gt;Webserver&lt;br&gt;vnet-web" style="rounded=1;whiteSpace=wrap;html=1;" vertex="1" parent="1">
          <mxGeometry x="198" y="4842" width="150" height="150" as="geometry" />
        </mxCell>
        <mxCell id="qE7HTw5Iz3dnXzz-xxV6-290" style="edgeStyle=orthogonalEdgeStyle;rounded=0;orthogonalLoop=1;jettySize=auto;html=1;exitX=0.5;exitY=0;exitDx=0;exitDy=0;startArrow=classic;startFill=1;endArrow=none;endFill=0;" edge="1" parent="1" source="qE7HTw5Iz3dnXzz-xxV6-291" target="qE7HTw5Iz3dnXzz-xxV6-305">
          <mxGeometry relative="1" as="geometry" />
        </mxCell>
        <mxCell id="qE7HTw5Iz3dnXzz-xxV6-291" value="&lt;br&gt;&lt;br&gt;&lt;br&gt;&lt;br&gt;Management&lt;br&gt;vnet-mngt" style="rounded=1;whiteSpace=wrap;html=1;" vertex="1" parent="1">
          <mxGeometry x="563" y="5052" width="150" height="150" as="geometry" />
        </mxCell>
        <mxCell id="qE7HTw5Iz3dnXzz-xxV6-292" value="" style="image;aspect=fixed;html=1;points=[];align=center;fontSize=12;image=img/lib/azure2/compute/Virtual_Machine.svg;" vertex="1" parent="1">
          <mxGeometry x="611.05" y="5072" width="53.91" height="50" as="geometry" />
        </mxCell>
        <mxCell id="qE7HTw5Iz3dnXzz-xxV6-293" value="Availability Zone 1" style="rounded=1;whiteSpace=wrap;html=1;fillColor=none;strokeColor=#66B2FF;strokeWidth=2;collapsible=1;" vertex="1" collapsed="1" parent="1">
          <mxGeometry x="98" y="4827" width="50" height="40" as="geometry">
            <mxRectangle x="80" y="125" width="700" height="180" as="alternateBounds" />
          </mxGeometry>
        </mxCell>
        <mxCell id="qE7HTw5Iz3dnXzz-xxV6-294" value="Availability zone 2" style="rounded=1;whiteSpace=wrap;html=1;fillColor=none;strokeColor=#66B2FF;strokeWidth=2;backgroundOutline=0;collapsible=1;" vertex="1" collapsed="1" parent="1">
          <mxGeometry x="98" y="5042" width="50" height="40" as="geometry">
            <mxRectangle x="80" y="340" width="700" height="170" as="alternateBounds" />
          </mxGeometry>
        </mxCell>
        <mxCell id="qE7HTw5Iz3dnXzz-xxV6-295" value="" style="image;aspect=fixed;html=1;points=[];align=center;fontSize=12;image=img/lib/azure2/compute/Virtual_Machine.svg;" vertex="1" parent="1">
          <mxGeometry x="246.05" y="4862" width="53.91" height="50" as="geometry" />
        </mxCell>
        <mxCell id="qE7HTw5Iz3dnXzz-xxV6-296" value="" style="endArrow=none;dashed=1;html=1;dashPattern=1 3;strokeWidth=2;rounded=0;" edge="1" parent="1">
          <mxGeometry width="50" height="50" relative="1" as="geometry">
            <mxPoint x="98" y="4782" as="sourcePoint" />
            <mxPoint x="58" y="4742" as="targetPoint" />
          </mxGeometry>
        </mxCell>
        <mxCell id="qE7HTw5Iz3dnXzz-xxV6-299" value="" style="image;aspect=fixed;html=1;points=[];align=center;fontSize=12;image=img/lib/azure2/storage/Storage_Accounts.svg;" vertex="1" parent="1">
          <mxGeometry x="155.5" y="5288.5" width="65" height="52" as="geometry" />
        </mxCell>
        <mxCell id="qE7HTw5Iz3dnXzz-xxV6-300" value="" style="image;aspect=fixed;html=1;points=[];align=center;fontSize=12;image=img/lib/azure2/general/Blob_Block.svg;" vertex="1" parent="1">
          <mxGeometry x="338" y="5287" width="65" height="52" as="geometry" />
        </mxCell>
        <mxCell id="qE7HTw5Iz3dnXzz-xxV6-301" value="" style="image;aspect=fixed;html=1;points=[];align=center;fontSize=12;image=img/lib/azure2/security/Key_Vaults.svg;" vertex="1" parent="1">
          <mxGeometry x="570.05" y="5330" width="51" height="51" as="geometry" />
        </mxCell>
        <mxCell id="qE7HTw5Iz3dnXzz-xxV6-302" value="" style="image;aspect=fixed;html=1;points=[];align=center;fontSize=12;image=img/lib/azure2/networking/Network_Security_Groups.svg;" vertex="1" parent="1">
          <mxGeometry x="198" y="4970" width="31.29" height="38" as="geometry" />
        </mxCell>
        <mxCell id="qE7HTw5Iz3dnXzz-xxV6-303" value="" style="image;aspect=fixed;html=1;points=[];align=center;fontSize=12;image=img/lib/azure2/networking/Network_Security_Groups.svg;" vertex="1" parent="1">
          <mxGeometry x="688" y="5042" width="31.29" height="38" as="geometry" />
        </mxCell>
        <mxCell id="qE7HTw5Iz3dnXzz-xxV6-304" value="" style="image;aspect=fixed;html=1;points=[];align=center;fontSize=12;image=img/lib/azure2/storage/Recovery_Services_Vaults.svg;" vertex="1" parent="1">
          <mxGeometry x="466" y="5338" width="49.45" height="43" as="geometry" />
        </mxCell>
        <mxCell id="qE7HTw5Iz3dnXzz-xxV6-305" value="Internet" style="text;html=1;align=center;verticalAlign=middle;resizable=0;points=[];autosize=1;strokeColor=none;fillColor=none;" vertex="1" parent="1">
          <mxGeometry x="418" y="4760" width="60" height="30" as="geometry" />
        </mxCell>
        <mxCell id="qE7HTw5Iz3dnXzz-xxV6-306" value="" style="image;aspect=fixed;html=1;points=[];align=center;fontSize=12;image=img/lib/azure2/general/Resource_Groups.svg;" vertex="1" parent="1">
          <mxGeometry x="40" y="4720" width="68" height="64" as="geometry" />
        </mxCell>
        <mxCell id="qE7HTw5Iz3dnXzz-xxV6-307" value="" style="rounded=0;whiteSpace=wrap;html=1;" vertex="1" parent="1">
          <mxGeometry x="653.64" y="5255.5" width="120" height="123" as="geometry" />
        </mxCell>
        <mxCell id="qE7HTw5Iz3dnXzz-xxV6-308" value="IP address:&lt;br&gt;10.10.0.0/16&lt;br&gt;10.20.0.0/16&lt;br&gt;Subnets:&lt;br&gt;10.10.10.0/24&lt;br&gt;10.20.20.0/24&lt;br&gt;" style="text;html=1;align=center;verticalAlign=middle;resizable=0;points=[];autosize=1;strokeColor=none;fillColor=none;" vertex="1" parent="1">
          <mxGeometry x="663.64" y="5268.5" width="100" height="100" as="geometry" />
        </mxCell>
        <mxCell id="qE7HTw5Iz3dnXzz-xxV6-309" value="Stap 5:&lt;br&gt;Het aanmaken van de VMs." style="text;html=1;align=center;verticalAlign=middle;resizable=0;points=[];autosize=1;strokeColor=none;fillColor=none;" vertex="1" parent="1">
          <mxGeometry x="345.45" y="4700" width="170" height="40" as="geometry" />
        </mxCell>
        <mxCell id="qE7HTw5Iz3dnXzz-xxV6-310" value="Stap 6:&lt;br&gt;Het aanmaken van de back-up regels" style="text;html=1;align=center;verticalAlign=middle;resizable=0;points=[];autosize=1;strokeColor=none;fillColor=none;" vertex="1" parent="1">
          <mxGeometry x="250" y="5763" width="220" height="40" as="geometry" />
        </mxCell>
        <mxCell id="qE7HTw5Iz3dnXzz-xxV6-343" value="" style="endArrow=none;dashed=1;html=1;rounded=0;" edge="1" parent="1">
          <mxGeometry width="50" height="50" relative="1" as="geometry">
            <mxPoint x="8" y="7699" as="sourcePoint" />
            <mxPoint x="128" y="7049" as="targetPoint" />
            <Array as="points">
              <mxPoint x="18" y="7099" />
            </Array>
          </mxGeometry>
        </mxCell>
        <mxCell id="qE7HTw5Iz3dnXzz-xxV6-344" value="" style="endArrow=none;dashed=1;html=1;rounded=0;" edge="1" parent="1">
          <mxGeometry width="50" height="50" relative="1" as="geometry">
            <mxPoint x="8" y="7699" as="sourcePoint" />
            <mxPoint x="788" y="7049" as="targetPoint" />
            <Array as="points">
              <mxPoint x="788" y="7699" />
            </Array>
          </mxGeometry>
        </mxCell>
        <mxCell id="qE7HTw5Iz3dnXzz-xxV6-345" value="" style="endArrow=none;dashed=1;html=1;rounded=0;" edge="1" parent="1">
          <mxGeometry width="50" height="50" relative="1" as="geometry">
            <mxPoint x="128" y="7049" as="sourcePoint" />
            <mxPoint x="788" y="7049" as="targetPoint" />
            <Array as="points">
              <mxPoint x="368" y="7049" />
            </Array>
          </mxGeometry>
        </mxCell>
        <mxCell id="qE7HTw5Iz3dnXzz-xxV6-346" value="Vnet1" style="rounded=1;whiteSpace=wrap;html=1;fillColor=#FFFFFF;strokeColor=#000000;gradientColor=none;arcSize=1;fontColor=#FFFFFF;" vertex="1" parent="1">
          <mxGeometry x="143" y="7108.110000000001" width="200" height="400" as="geometry" />
        </mxCell>
        <mxCell id="qE7HTw5Iz3dnXzz-xxV6-347" value="Peering" style="edgeStyle=orthogonalEdgeStyle;rounded=0;orthogonalLoop=1;jettySize=auto;html=1;exitX=0;exitY=0.5;exitDx=0;exitDy=0;entryX=1;entryY=0.5;entryDx=0;entryDy=0;endArrow=classic;endFill=1;startArrow=classic;startFill=1;strokeColor=#000000;" edge="1" parent="1">
          <mxGeometry relative="1" as="geometry">
            <mxPoint x="508" y="7308.51" as="sourcePoint" />
            <mxPoint x="343" y="7308.51" as="targetPoint" />
            <Array as="points">
              <mxPoint x="400.25" y="7308.51" />
              <mxPoint x="400.25" y="7308.51" />
            </Array>
          </mxGeometry>
        </mxCell>
        <mxCell id="qE7HTw5Iz3dnXzz-xxV6-348" value="Vnet2" style="rounded=1;whiteSpace=wrap;html=1;fillColor=#FFFFFF;arcSize=1;fontColor=#FFFFFF;" vertex="1" parent="1">
          <mxGeometry x="508" y="7108.110000000001" width="200" height="400" as="geometry" />
        </mxCell>
        <mxCell id="qE7HTw5Iz3dnXzz-xxV6-349" value="" style="edgeStyle=orthogonalEdgeStyle;rounded=0;orthogonalLoop=1;jettySize=auto;html=1;" edge="1" parent="1" source="qE7HTw5Iz3dnXzz-xxV6-351" target="qE7HTw5Iz3dnXzz-xxV6-346">
          <mxGeometry relative="1" as="geometry" />
        </mxCell>
        <mxCell id="qE7HTw5Iz3dnXzz-xxV6-350" style="edgeStyle=orthogonalEdgeStyle;rounded=0;orthogonalLoop=1;jettySize=auto;html=1;entryX=0.5;entryY=1;entryDx=0;entryDy=0;startArrow=classic;startFill=1;" edge="1" parent="1" source="qE7HTw5Iz3dnXzz-xxV6-351" target="qE7HTw5Iz3dnXzz-xxV6-348">
          <mxGeometry relative="1" as="geometry" />
        </mxCell>
        <mxCell id="qE7HTw5Iz3dnXzz-xxV6-351" value="storage account&lt;br&gt;Blob" style="rounded=1;whiteSpace=wrap;html=1;" vertex="1" parent="1">
          <mxGeometry x="98" y="7542.5" width="290" height="115" as="geometry" />
        </mxCell>
        <mxCell id="qE7HTw5Iz3dnXzz-xxV6-352" value="management connection" style="edgeStyle=orthogonalEdgeStyle;rounded=0;orthogonalLoop=1;jettySize=auto;html=1;startArrow=classic;startFill=1;" edge="1" parent="1" source="qE7HTw5Iz3dnXzz-xxV6-354" target="qE7HTw5Iz3dnXzz-xxV6-356">
          <mxGeometry relative="1" as="geometry">
            <Array as="points">
              <mxPoint x="243" y="7409" />
            </Array>
          </mxGeometry>
        </mxCell>
        <mxCell id="qE7HTw5Iz3dnXzz-xxV6-353" value="" style="edgeStyle=orthogonalEdgeStyle;rounded=0;orthogonalLoop=1;jettySize=auto;html=1;exitX=0.5;exitY=0;exitDx=0;exitDy=0;startArrow=classic;startFill=1;" edge="1" parent="1" source="qE7HTw5Iz3dnXzz-xxV6-354">
          <mxGeometry relative="1" as="geometry">
            <mxPoint x="418" y="7069" as="targetPoint" />
          </mxGeometry>
        </mxCell>
        <mxCell id="qE7HTw5Iz3dnXzz-xxV6-354" value="&lt;br&gt;&lt;br&gt;&lt;br&gt;&lt;br&gt;Webserver&lt;br&gt;vnet-web" style="rounded=1;whiteSpace=wrap;html=1;" vertex="1" parent="1">
          <mxGeometry x="168" y="7129" width="150" height="150" as="geometry" />
        </mxCell>
        <mxCell id="qE7HTw5Iz3dnXzz-xxV6-355" style="edgeStyle=orthogonalEdgeStyle;rounded=0;orthogonalLoop=1;jettySize=auto;html=1;exitX=0.5;exitY=0;exitDx=0;exitDy=0;startArrow=classic;startFill=1;endArrow=none;endFill=0;" edge="1" parent="1" source="qE7HTw5Iz3dnXzz-xxV6-356" target="qE7HTw5Iz3dnXzz-xxV6-370">
          <mxGeometry relative="1" as="geometry" />
        </mxCell>
        <mxCell id="qE7HTw5Iz3dnXzz-xxV6-356" value="&lt;br&gt;&lt;br&gt;&lt;br&gt;&lt;br&gt;Management&lt;br&gt;vnet-mngt" style="rounded=1;whiteSpace=wrap;html=1;" vertex="1" parent="1">
          <mxGeometry x="533" y="7339" width="150" height="150" as="geometry" />
        </mxCell>
        <mxCell id="qE7HTw5Iz3dnXzz-xxV6-357" value="" style="image;aspect=fixed;html=1;points=[];align=center;fontSize=12;image=img/lib/azure2/compute/Virtual_Machine.svg;" vertex="1" parent="1">
          <mxGeometry x="581.05" y="7359" width="53.91" height="50" as="geometry" />
        </mxCell>
        <mxCell id="qE7HTw5Iz3dnXzz-xxV6-358" value="Availability Zone 1" style="rounded=1;whiteSpace=wrap;html=1;fillColor=none;strokeColor=#66B2FF;strokeWidth=2;collapsible=1;" vertex="1" collapsed="1" parent="1">
          <mxGeometry x="68" y="7114" width="50" height="40" as="geometry">
            <mxRectangle x="80" y="125" width="700" height="180" as="alternateBounds" />
          </mxGeometry>
        </mxCell>
        <mxCell id="qE7HTw5Iz3dnXzz-xxV6-359" value="Availability zone 2" style="rounded=1;whiteSpace=wrap;html=1;fillColor=none;strokeColor=#66B2FF;strokeWidth=2;backgroundOutline=0;collapsible=1;" vertex="1" collapsed="1" parent="1">
          <mxGeometry x="68" y="7329" width="50" height="40" as="geometry">
            <mxRectangle x="80" y="340" width="700" height="170" as="alternateBounds" />
          </mxGeometry>
        </mxCell>
        <mxCell id="qE7HTw5Iz3dnXzz-xxV6-360" value="" style="image;aspect=fixed;html=1;points=[];align=center;fontSize=12;image=img/lib/azure2/compute/Virtual_Machine.svg;" vertex="1" parent="1">
          <mxGeometry x="216.05" y="7149" width="53.91" height="50" as="geometry" />
        </mxCell>
        <mxCell id="qE7HTw5Iz3dnXzz-xxV6-361" value="" style="endArrow=none;dashed=1;html=1;dashPattern=1 3;strokeWidth=2;rounded=0;" edge="1" parent="1">
          <mxGeometry width="50" height="50" relative="1" as="geometry">
            <mxPoint x="68" y="7069" as="sourcePoint" />
            <mxPoint x="28" y="7029" as="targetPoint" />
          </mxGeometry>
        </mxCell>
        <mxCell id="qE7HTw5Iz3dnXzz-xxV6-362" value="" style="image;aspect=fixed;html=1;points=[];align=center;fontSize=12;image=img/lib/azure2/networking/Virtual_Networks.svg;" vertex="1" parent="1">
          <mxGeometry x="308" y="7299.9" width="30.5" height="18.21" as="geometry" />
        </mxCell>
        <mxCell id="qE7HTw5Iz3dnXzz-xxV6-363" value="" style="image;aspect=fixed;html=1;points=[];align=center;fontSize=12;image=img/lib/azure2/networking/Virtual_Networks.svg;" vertex="1" parent="1">
          <mxGeometry x="518" y="7299.01" width="30.5" height="18.21" as="geometry" />
        </mxCell>
        <mxCell id="qE7HTw5Iz3dnXzz-xxV6-364" value="" style="image;aspect=fixed;html=1;points=[];align=center;fontSize=12;image=img/lib/azure2/storage/Storage_Accounts.svg;" vertex="1" parent="1">
          <mxGeometry x="125.5" y="7575.5" width="65" height="52" as="geometry" />
        </mxCell>
        <mxCell id="qE7HTw5Iz3dnXzz-xxV6-365" value="" style="image;aspect=fixed;html=1;points=[];align=center;fontSize=12;image=img/lib/azure2/general/Blob_Block.svg;" vertex="1" parent="1">
          <mxGeometry x="308" y="7574" width="65" height="52" as="geometry" />
        </mxCell>
        <mxCell id="qE7HTw5Iz3dnXzz-xxV6-366" value="" style="image;aspect=fixed;html=1;points=[];align=center;fontSize=12;image=img/lib/azure2/security/Key_Vaults.svg;" vertex="1" parent="1">
          <mxGeometry x="540.05" y="7617" width="51" height="51" as="geometry" />
        </mxCell>
        <mxCell id="qE7HTw5Iz3dnXzz-xxV6-367" value="" style="image;aspect=fixed;html=1;points=[];align=center;fontSize=12;image=img/lib/azure2/networking/Network_Security_Groups.svg;" vertex="1" parent="1">
          <mxGeometry x="168" y="7257" width="31.29" height="38" as="geometry" />
        </mxCell>
        <mxCell id="qE7HTw5Iz3dnXzz-xxV6-368" value="" style="image;aspect=fixed;html=1;points=[];align=center;fontSize=12;image=img/lib/azure2/networking/Network_Security_Groups.svg;" vertex="1" parent="1">
          <mxGeometry x="658" y="7329" width="31.29" height="38" as="geometry" />
        </mxCell>
        <mxCell id="qE7HTw5Iz3dnXzz-xxV6-369" value="" style="image;aspect=fixed;html=1;points=[];align=center;fontSize=12;image=img/lib/azure2/storage/Recovery_Services_Vaults.svg;" vertex="1" parent="1">
          <mxGeometry x="436" y="7625" width="49.45" height="43" as="geometry" />
        </mxCell>
        <mxCell id="qE7HTw5Iz3dnXzz-xxV6-370" value="Internet" style="text;html=1;align=center;verticalAlign=middle;resizable=0;points=[];autosize=1;strokeColor=none;fillColor=none;" vertex="1" parent="1">
          <mxGeometry x="388" y="7047" width="60" height="30" as="geometry" />
        </mxCell>
        <mxCell id="qE7HTw5Iz3dnXzz-xxV6-371" value="" style="image;aspect=fixed;html=1;points=[];align=center;fontSize=12;image=img/lib/azure2/general/Resource_Groups.svg;" vertex="1" parent="1">
          <mxGeometry x="10" y="7007" width="68" height="64" as="geometry" />
        </mxCell>
        <mxCell id="qE7HTw5Iz3dnXzz-xxV6-372" value="" style="rounded=0;whiteSpace=wrap;html=1;" vertex="1" parent="1">
          <mxGeometry x="623.64" y="7542.5" width="120" height="123" as="geometry" />
        </mxCell>
        <mxCell id="qE7HTw5Iz3dnXzz-xxV6-373" value="IP address:&lt;br&gt;10.10.0.0/16&lt;br&gt;10.20.0.0/16&lt;br&gt;Subnets:&lt;br&gt;10.10.10.0/24&lt;br&gt;10.20.20.0/24&lt;br&gt;" style="text;html=1;align=center;verticalAlign=middle;resizable=0;points=[];autosize=1;strokeColor=none;fillColor=none;" vertex="1" parent="1">
          <mxGeometry x="633.64" y="7555.5" width="100" height="100" as="geometry" />
        </mxCell>
        <mxCell id="qE7HTw5Iz3dnXzz-xxV6-374" value="Stap 7:&lt;br&gt;Het aanmaken van alle netwerkregels" style="text;html=1;align=center;verticalAlign=middle;resizable=0;points=[];autosize=1;strokeColor=none;fillColor=none;" vertex="1" parent="1">
          <mxGeometry x="228" y="6980" width="220" height="40" as="geometry" />
        </mxCell>
        <mxCell id="qE7HTw5Iz3dnXzz-xxV6-375" value="" style="endArrow=none;dashed=1;html=1;rounded=0;" edge="1" parent="1">
          <mxGeometry width="50" height="50" relative="1" as="geometry">
            <mxPoint x="18" y="4269" as="sourcePoint" />
            <mxPoint x="138" y="3619" as="targetPoint" />
            <Array as="points">
              <mxPoint x="28" y="3669" />
            </Array>
          </mxGeometry>
        </mxCell>
        <mxCell id="qE7HTw5Iz3dnXzz-xxV6-376" value="" style="endArrow=none;dashed=1;html=1;rounded=0;" edge="1" parent="1">
          <mxGeometry width="50" height="50" relative="1" as="geometry">
            <mxPoint x="18" y="4269" as="sourcePoint" />
            <mxPoint x="798" y="3619" as="targetPoint" />
            <Array as="points">
              <mxPoint x="798" y="4269" />
            </Array>
          </mxGeometry>
        </mxCell>
        <mxCell id="qE7HTw5Iz3dnXzz-xxV6-377" value="" style="endArrow=none;dashed=1;html=1;rounded=0;" edge="1" parent="1">
          <mxGeometry width="50" height="50" relative="1" as="geometry">
            <mxPoint x="138" y="3619" as="sourcePoint" />
            <mxPoint x="798" y="3619" as="targetPoint" />
            <Array as="points">
              <mxPoint x="378" y="3619" />
            </Array>
          </mxGeometry>
        </mxCell>
        <mxCell id="qE7HTw5Iz3dnXzz-xxV6-378" value="Vnet1" style="rounded=1;whiteSpace=wrap;html=1;fillColor=#FFFFFF;strokeColor=#000000;gradientColor=none;arcSize=1;fontColor=#FFFFFF;" vertex="1" parent="1">
          <mxGeometry x="153" y="3678.1100000000006" width="200" height="400" as="geometry" />
        </mxCell>
        <mxCell id="qE7HTw5Iz3dnXzz-xxV6-379" value="Vnet2" style="rounded=1;whiteSpace=wrap;html=1;fillColor=#FFFFFF;arcSize=1;fontColor=#FFFFFF;" vertex="1" parent="1">
          <mxGeometry x="518" y="3678.1100000000006" width="200" height="400" as="geometry" />
        </mxCell>
        <mxCell id="qE7HTw5Iz3dnXzz-xxV6-380" value="" style="edgeStyle=orthogonalEdgeStyle;rounded=0;orthogonalLoop=1;jettySize=auto;html=1;" edge="1" parent="1" source="qE7HTw5Iz3dnXzz-xxV6-381" target="qE7HTw5Iz3dnXzz-xxV6-378">
          <mxGeometry relative="1" as="geometry" />
        </mxCell>
        <mxCell id="qE7HTw5Iz3dnXzz-xxV6-381" value="storage account&lt;br&gt;Blob" style="rounded=1;whiteSpace=wrap;html=1;" vertex="1" parent="1">
          <mxGeometry x="108" y="4112.5" width="290" height="115" as="geometry" />
        </mxCell>
        <mxCell id="qE7HTw5Iz3dnXzz-xxV6-382" value="&lt;br&gt;&lt;br&gt;&lt;br&gt;&lt;br&gt;Webserver&lt;br&gt;vnet-web" style="rounded=1;whiteSpace=wrap;html=1;" vertex="1" parent="1">
          <mxGeometry x="178" y="3699" width="150" height="150" as="geometry" />
        </mxCell>
        <mxCell id="qE7HTw5Iz3dnXzz-xxV6-383" value="&lt;br&gt;&lt;br&gt;&lt;br&gt;&lt;br&gt;Management&lt;br&gt;vnet-mngt" style="rounded=1;whiteSpace=wrap;html=1;" vertex="1" parent="1">
          <mxGeometry x="543" y="3909" width="150" height="150" as="geometry" />
        </mxCell>
        <mxCell id="qE7HTw5Iz3dnXzz-xxV6-384" value="" style="endArrow=none;dashed=1;html=1;dashPattern=1 3;strokeWidth=2;rounded=0;" edge="1" parent="1">
          <mxGeometry width="50" height="50" relative="1" as="geometry">
            <mxPoint x="78" y="3639" as="sourcePoint" />
            <mxPoint x="38" y="3599" as="targetPoint" />
          </mxGeometry>
        </mxCell>
        <mxCell id="qE7HTw5Iz3dnXzz-xxV6-385" value="" style="image;aspect=fixed;html=1;points=[];align=center;fontSize=12;image=img/lib/azure2/storage/Storage_Accounts.svg;" vertex="1" parent="1">
          <mxGeometry x="135.5" y="4145.5" width="65" height="52" as="geometry" />
        </mxCell>
        <mxCell id="qE7HTw5Iz3dnXzz-xxV6-386" value="" style="image;aspect=fixed;html=1;points=[];align=center;fontSize=12;image=img/lib/azure2/general/Blob_Block.svg;" vertex="1" parent="1">
          <mxGeometry x="318" y="4144" width="65" height="52" as="geometry" />
        </mxCell>
        <mxCell id="qE7HTw5Iz3dnXzz-xxV6-387" value="" style="image;aspect=fixed;html=1;points=[];align=center;fontSize=12;image=img/lib/azure2/security/Key_Vaults.svg;" vertex="1" parent="1">
          <mxGeometry x="550.05" y="4187" width="51" height="51" as="geometry" />
        </mxCell>
        <mxCell id="qE7HTw5Iz3dnXzz-xxV6-388" value="" style="image;aspect=fixed;html=1;points=[];align=center;fontSize=12;image=img/lib/azure2/networking/Network_Security_Groups.svg;" vertex="1" parent="1">
          <mxGeometry x="178" y="3827" width="31.29" height="38" as="geometry" />
        </mxCell>
        <mxCell id="qE7HTw5Iz3dnXzz-xxV6-389" value="" style="image;aspect=fixed;html=1;points=[];align=center;fontSize=12;image=img/lib/azure2/networking/Network_Security_Groups.svg;" vertex="1" parent="1">
          <mxGeometry x="668" y="3899" width="31.29" height="38" as="geometry" />
        </mxCell>
        <mxCell id="qE7HTw5Iz3dnXzz-xxV6-390" value="Internet" style="text;html=1;align=center;verticalAlign=middle;resizable=0;points=[];autosize=1;strokeColor=none;fillColor=none;" vertex="1" parent="1">
          <mxGeometry x="398" y="3617" width="60" height="30" as="geometry" />
        </mxCell>
        <mxCell id="qE7HTw5Iz3dnXzz-xxV6-391" value="" style="image;aspect=fixed;html=1;points=[];align=center;fontSize=12;image=img/lib/azure2/general/Resource_Groups.svg;" vertex="1" parent="1">
          <mxGeometry x="20" y="3577" width="68" height="64" as="geometry" />
        </mxCell>
        <mxCell id="qE7HTw5Iz3dnXzz-xxV6-392" value="" style="rounded=0;whiteSpace=wrap;html=1;" vertex="1" parent="1">
          <mxGeometry x="633.64" y="4112.5" width="120" height="123" as="geometry" />
        </mxCell>
        <mxCell id="qE7HTw5Iz3dnXzz-xxV6-393" value="IP address:&lt;br&gt;10.10.0.0/16&lt;br&gt;10.20.0.0/16&lt;br&gt;Subnets:&lt;br&gt;10.10.10.0/24&lt;br&gt;10.20.20.0/24&lt;br&gt;" style="text;html=1;align=center;verticalAlign=middle;resizable=0;points=[];autosize=1;strokeColor=none;fillColor=none;" vertex="1" parent="1">
          <mxGeometry x="643.64" y="4125.5" width="100" height="100" as="geometry" />
        </mxCell>
        <mxCell id="qE7HTw5Iz3dnXzz-xxV6-394" value="Stap 4:&lt;br&gt;Het aanmaken van de Key Vault&lt;br&gt;&amp;nbsp;" style="text;html=1;align=center;verticalAlign=middle;resizable=0;points=[];autosize=1;strokeColor=none;fillColor=none;" vertex="1" parent="1">
          <mxGeometry x="255" y="3560" width="190" height="60" as="geometry" />
        </mxCell>
        <mxCell id="qE7HTw5Iz3dnXzz-xxV6-395" value="" style="endArrow=none;dashed=1;html=1;rounded=0;" edge="1" parent="1">
          <mxGeometry width="50" height="50" relative="1" as="geometry">
            <mxPoint x="28" y="3099" as="sourcePoint" />
            <mxPoint x="148" y="2449" as="targetPoint" />
            <Array as="points">
              <mxPoint x="38" y="2499" />
            </Array>
          </mxGeometry>
        </mxCell>
        <mxCell id="qE7HTw5Iz3dnXzz-xxV6-396" value="" style="endArrow=none;dashed=1;html=1;rounded=0;" edge="1" parent="1">
          <mxGeometry width="50" height="50" relative="1" as="geometry">
            <mxPoint x="28" y="3099" as="sourcePoint" />
            <mxPoint x="808" y="2449" as="targetPoint" />
            <Array as="points">
              <mxPoint x="808" y="3099" />
            </Array>
          </mxGeometry>
        </mxCell>
        <mxCell id="qE7HTw5Iz3dnXzz-xxV6-397" value="" style="endArrow=none;dashed=1;html=1;rounded=0;" edge="1" parent="1">
          <mxGeometry width="50" height="50" relative="1" as="geometry">
            <mxPoint x="148" y="2449" as="sourcePoint" />
            <mxPoint x="808" y="2449" as="targetPoint" />
            <Array as="points">
              <mxPoint x="388" y="2449" />
            </Array>
          </mxGeometry>
        </mxCell>
        <mxCell id="qE7HTw5Iz3dnXzz-xxV6-398" value="Vnet1" style="rounded=1;whiteSpace=wrap;html=1;fillColor=#FFFFFF;strokeColor=#000000;gradientColor=none;arcSize=1;fontColor=#FFFFFF;" vertex="1" parent="1">
          <mxGeometry x="163" y="2508.1100000000006" width="200" height="400" as="geometry" />
        </mxCell>
        <mxCell id="qE7HTw5Iz3dnXzz-xxV6-399" value="Vnet2" style="rounded=1;whiteSpace=wrap;html=1;fillColor=#FFFFFF;arcSize=1;fontColor=#FFFFFF;" vertex="1" parent="1">
          <mxGeometry x="528" y="2508.1100000000006" width="200" height="400" as="geometry" />
        </mxCell>
        <mxCell id="qE7HTw5Iz3dnXzz-xxV6-400" value="" style="edgeStyle=orthogonalEdgeStyle;rounded=0;orthogonalLoop=1;jettySize=auto;html=1;" edge="1" parent="1" source="qE7HTw5Iz3dnXzz-xxV6-401" target="qE7HTw5Iz3dnXzz-xxV6-398">
          <mxGeometry relative="1" as="geometry" />
        </mxCell>
        <mxCell id="qE7HTw5Iz3dnXzz-xxV6-401" value="storage account&lt;br&gt;Blob" style="rounded=1;whiteSpace=wrap;html=1;" vertex="1" parent="1">
          <mxGeometry x="118" y="2942.5" width="290" height="115" as="geometry" />
        </mxCell>
        <mxCell id="qE7HTw5Iz3dnXzz-xxV6-402" value="&lt;br&gt;&lt;br&gt;&lt;br&gt;&lt;br&gt;Webserver&lt;br&gt;vnet-web" style="rounded=1;whiteSpace=wrap;html=1;" vertex="1" parent="1">
          <mxGeometry x="188" y="2529" width="150" height="150" as="geometry" />
        </mxCell>
        <mxCell id="qE7HTw5Iz3dnXzz-xxV6-403" value="&lt;br&gt;&lt;br&gt;&lt;br&gt;&lt;br&gt;Management&lt;br&gt;vnet-mngt" style="rounded=1;whiteSpace=wrap;html=1;" vertex="1" parent="1">
          <mxGeometry x="553" y="2739" width="150" height="150" as="geometry" />
        </mxCell>
        <mxCell id="qE7HTw5Iz3dnXzz-xxV6-404" value="Availability Zone 1" style="rounded=1;whiteSpace=wrap;html=1;fillColor=none;strokeColor=#66B2FF;strokeWidth=2;collapsible=1;" vertex="1" collapsed="1" parent="1">
          <mxGeometry x="88" y="2514" width="50" height="40" as="geometry">
            <mxRectangle x="80" y="125" width="700" height="180" as="alternateBounds" />
          </mxGeometry>
        </mxCell>
        <mxCell id="qE7HTw5Iz3dnXzz-xxV6-405" value="Availability zone 2" style="rounded=1;whiteSpace=wrap;html=1;fillColor=none;strokeColor=#66B2FF;strokeWidth=2;backgroundOutline=0;collapsible=1;" vertex="1" collapsed="1" parent="1">
          <mxGeometry x="88" y="2729" width="50" height="40" as="geometry">
            <mxRectangle x="80" y="340" width="700" height="170" as="alternateBounds" />
          </mxGeometry>
        </mxCell>
        <mxCell id="qE7HTw5Iz3dnXzz-xxV6-406" value="" style="endArrow=none;dashed=1;html=1;dashPattern=1 3;strokeWidth=2;rounded=0;" edge="1" parent="1">
          <mxGeometry width="50" height="50" relative="1" as="geometry">
            <mxPoint x="88" y="2469" as="sourcePoint" />
            <mxPoint x="48" y="2429" as="targetPoint" />
          </mxGeometry>
        </mxCell>
        <mxCell id="qE7HTw5Iz3dnXzz-xxV6-407" value="" style="image;aspect=fixed;html=1;points=[];align=center;fontSize=12;image=img/lib/azure2/storage/Storage_Accounts.svg;" vertex="1" parent="1">
          <mxGeometry x="145.5" y="2975.5" width="65" height="52" as="geometry" />
        </mxCell>
        <mxCell id="qE7HTw5Iz3dnXzz-xxV6-408" value="" style="image;aspect=fixed;html=1;points=[];align=center;fontSize=12;image=img/lib/azure2/general/Blob_Block.svg;" vertex="1" parent="1">
          <mxGeometry x="328" y="2974" width="65" height="52" as="geometry" />
        </mxCell>
        <mxCell id="qE7HTw5Iz3dnXzz-xxV6-409" value="" style="image;aspect=fixed;html=1;points=[];align=center;fontSize=12;image=img/lib/azure2/networking/Network_Security_Groups.svg;" vertex="1" parent="1">
          <mxGeometry x="188" y="2657" width="31.29" height="38" as="geometry" />
        </mxCell>
        <mxCell id="qE7HTw5Iz3dnXzz-xxV6-410" value="" style="image;aspect=fixed;html=1;points=[];align=center;fontSize=12;image=img/lib/azure2/networking/Network_Security_Groups.svg;" vertex="1" parent="1">
          <mxGeometry x="678" y="2729" width="31.29" height="38" as="geometry" />
        </mxCell>
        <mxCell id="qE7HTw5Iz3dnXzz-xxV6-411" value="Internet" style="text;html=1;align=center;verticalAlign=middle;resizable=0;points=[];autosize=1;strokeColor=none;fillColor=none;" vertex="1" parent="1">
          <mxGeometry x="408" y="2447" width="60" height="30" as="geometry" />
        </mxCell>
        <mxCell id="qE7HTw5Iz3dnXzz-xxV6-412" value="" style="image;aspect=fixed;html=1;points=[];align=center;fontSize=12;image=img/lib/azure2/general/Resource_Groups.svg;" vertex="1" parent="1">
          <mxGeometry x="30" y="2407" width="68" height="64" as="geometry" />
        </mxCell>
        <mxCell id="qE7HTw5Iz3dnXzz-xxV6-413" value="" style="rounded=0;whiteSpace=wrap;html=1;" vertex="1" parent="1">
          <mxGeometry x="643.64" y="2942.5" width="120" height="123" as="geometry" />
        </mxCell>
        <mxCell id="qE7HTw5Iz3dnXzz-xxV6-414" value="IP address:&lt;br&gt;10.10.0.0/16&lt;br&gt;10.20.0.0/16&lt;br&gt;Subnets:&lt;br&gt;10.10.10.0/24&lt;br&gt;10.20.20.0/24&lt;br&gt;" style="text;html=1;align=center;verticalAlign=middle;resizable=0;points=[];autosize=1;strokeColor=none;fillColor=none;" vertex="1" parent="1">
          <mxGeometry x="653.64" y="2955.5" width="100" height="100" as="geometry" />
        </mxCell>
        <mxCell id="qE7HTw5Iz3dnXzz-xxV6-415" value="Stap 3:&lt;br&gt;Het toevoegen van de NSGs en de IP adressen&amp;nbsp;" style="text;html=1;align=center;verticalAlign=middle;resizable=0;points=[];autosize=1;strokeColor=none;fillColor=none;" vertex="1" parent="1">
          <mxGeometry x="204" y="2390" width="280" height="40" as="geometry" />
        </mxCell>
        <mxCell id="qE7HTw5Iz3dnXzz-xxV6-416" value="" style="endArrow=none;dashed=1;html=1;rounded=0;" edge="1" parent="1">
          <mxGeometry width="50" height="50" relative="1" as="geometry">
            <mxPoint x="38" y="1909" as="sourcePoint" />
            <mxPoint x="158" y="1259" as="targetPoint" />
            <Array as="points">
              <mxPoint x="48" y="1309" />
            </Array>
          </mxGeometry>
        </mxCell>
        <mxCell id="qE7HTw5Iz3dnXzz-xxV6-417" value="" style="endArrow=none;dashed=1;html=1;rounded=0;" edge="1" parent="1">
          <mxGeometry width="50" height="50" relative="1" as="geometry">
            <mxPoint x="38" y="1909" as="sourcePoint" />
            <mxPoint x="818" y="1259" as="targetPoint" />
            <Array as="points">
              <mxPoint x="818" y="1909" />
            </Array>
          </mxGeometry>
        </mxCell>
        <mxCell id="qE7HTw5Iz3dnXzz-xxV6-418" value="" style="endArrow=none;dashed=1;html=1;rounded=0;" edge="1" parent="1">
          <mxGeometry width="50" height="50" relative="1" as="geometry">
            <mxPoint x="158" y="1259" as="sourcePoint" />
            <mxPoint x="818" y="1259" as="targetPoint" />
            <Array as="points">
              <mxPoint x="398" y="1259" />
            </Array>
          </mxGeometry>
        </mxCell>
        <mxCell id="qE7HTw5Iz3dnXzz-xxV6-419" value="Vnet1" style="rounded=1;whiteSpace=wrap;html=1;fillColor=#FFFFFF;strokeColor=#000000;gradientColor=none;arcSize=1;fontColor=#FFFFFF;" vertex="1" parent="1">
          <mxGeometry x="173" y="1318.1100000000006" width="200" height="400" as="geometry" />
        </mxCell>
        <mxCell id="qE7HTw5Iz3dnXzz-xxV6-420" value="Vnet2" style="rounded=1;whiteSpace=wrap;html=1;fillColor=#FFFFFF;arcSize=1;fontColor=#FFFFFF;" vertex="1" parent="1">
          <mxGeometry x="538" y="1318.1100000000006" width="200" height="400" as="geometry" />
        </mxCell>
        <mxCell id="qE7HTw5Iz3dnXzz-xxV6-421" value="" style="edgeStyle=orthogonalEdgeStyle;rounded=0;orthogonalLoop=1;jettySize=auto;html=1;" edge="1" parent="1" source="qE7HTw5Iz3dnXzz-xxV6-422" target="qE7HTw5Iz3dnXzz-xxV6-419">
          <mxGeometry relative="1" as="geometry" />
        </mxCell>
        <mxCell id="qE7HTw5Iz3dnXzz-xxV6-422" value="storage account&lt;br&gt;Blob" style="rounded=1;whiteSpace=wrap;html=1;" vertex="1" parent="1">
          <mxGeometry x="128" y="1752.5" width="290" height="115" as="geometry" />
        </mxCell>
        <mxCell id="qE7HTw5Iz3dnXzz-xxV6-423" value="&lt;br&gt;&lt;br&gt;&lt;br&gt;&lt;br&gt;Webserver&lt;br&gt;vnet-web" style="rounded=1;whiteSpace=wrap;html=1;" vertex="1" parent="1">
          <mxGeometry x="198" y="1339" width="150" height="150" as="geometry" />
        </mxCell>
        <mxCell id="qE7HTw5Iz3dnXzz-xxV6-424" value="&lt;br&gt;&lt;br&gt;&lt;br&gt;&lt;br&gt;Management&lt;br&gt;vnet-mngt" style="rounded=1;whiteSpace=wrap;html=1;" vertex="1" parent="1">
          <mxGeometry x="563" y="1549" width="150" height="150" as="geometry" />
        </mxCell>
        <mxCell id="qE7HTw5Iz3dnXzz-xxV6-425" value="" style="endArrow=none;dashed=1;html=1;dashPattern=1 3;strokeWidth=2;rounded=0;" edge="1" parent="1">
          <mxGeometry width="50" height="50" relative="1" as="geometry">
            <mxPoint x="98" y="1279" as="sourcePoint" />
            <mxPoint x="58" y="1239" as="targetPoint" />
          </mxGeometry>
        </mxCell>
        <mxCell id="qE7HTw5Iz3dnXzz-xxV6-426" value="" style="image;aspect=fixed;html=1;points=[];align=center;fontSize=12;image=img/lib/azure2/storage/Storage_Accounts.svg;" vertex="1" parent="1">
          <mxGeometry x="155.5" y="1785.5" width="65" height="52" as="geometry" />
        </mxCell>
        <mxCell id="qE7HTw5Iz3dnXzz-xxV6-427" value="" style="image;aspect=fixed;html=1;points=[];align=center;fontSize=12;image=img/lib/azure2/general/Blob_Block.svg;" vertex="1" parent="1">
          <mxGeometry x="338" y="1784" width="65" height="52" as="geometry" />
        </mxCell>
        <mxCell id="qE7HTw5Iz3dnXzz-xxV6-428" value="Internet" style="text;html=1;align=center;verticalAlign=middle;resizable=0;points=[];autosize=1;strokeColor=none;fillColor=none;" vertex="1" parent="1">
          <mxGeometry x="418" y="1257" width="60" height="30" as="geometry" />
        </mxCell>
        <mxCell id="qE7HTw5Iz3dnXzz-xxV6-429" value="" style="image;aspect=fixed;html=1;points=[];align=center;fontSize=12;image=img/lib/azure2/general/Resource_Groups.svg;" vertex="1" parent="1">
          <mxGeometry x="40" y="1217" width="68" height="64" as="geometry" />
        </mxCell>
        <mxCell id="qE7HTw5Iz3dnXzz-xxV6-430" value="" style="rounded=0;whiteSpace=wrap;html=1;" vertex="1" parent="1">
          <mxGeometry x="653.64" y="1752.5" width="120" height="123" as="geometry" />
        </mxCell>
        <mxCell id="qE7HTw5Iz3dnXzz-xxV6-431" value="IP adressen:&lt;br&gt;10.10.0.0/16&lt;br&gt;10.20.0.0/16&lt;br&gt;Subnets:&lt;br&gt;10.10.10.0/24&lt;br&gt;10.20.20.0/24" style="text;html=1;align=center;verticalAlign=middle;resizable=0;points=[];autosize=1;strokeColor=none;fillColor=none;" vertex="1" parent="1">
          <mxGeometry x="663.64" y="1765.5" width="100" height="100" as="geometry" />
        </mxCell>
        <mxCell id="qE7HTw5Iz3dnXzz-xxV6-432" value="Stap 2:&lt;br&gt;Het definiëren van de vnets en subnets&amp;nbsp;&amp;nbsp;" style="text;html=1;align=center;verticalAlign=middle;resizable=0;points=[];autosize=1;strokeColor=none;fillColor=none;" vertex="1" parent="1">
          <mxGeometry x="284" y="1200" width="240" height="40" as="geometry" />
        </mxCell>
        <mxCell id="qE7HTw5Iz3dnXzz-xxV6-433" value="" style="endArrow=none;dashed=1;html=1;rounded=0;" edge="1" parent="1">
          <mxGeometry width="50" height="50" relative="1" as="geometry">
            <mxPoint x="38" y="752" as="sourcePoint" />
            <mxPoint x="158" y="102" as="targetPoint" />
            <Array as="points">
              <mxPoint x="48" y="152" />
            </Array>
          </mxGeometry>
        </mxCell>
        <mxCell id="qE7HTw5Iz3dnXzz-xxV6-434" value="" style="endArrow=none;dashed=1;html=1;rounded=0;" edge="1" parent="1">
          <mxGeometry width="50" height="50" relative="1" as="geometry">
            <mxPoint x="38" y="752" as="sourcePoint" />
            <mxPoint x="818" y="102" as="targetPoint" />
            <Array as="points">
              <mxPoint x="818" y="752" />
            </Array>
          </mxGeometry>
        </mxCell>
        <mxCell id="qE7HTw5Iz3dnXzz-xxV6-435" value="" style="endArrow=none;dashed=1;html=1;rounded=0;" edge="1" parent="1">
          <mxGeometry width="50" height="50" relative="1" as="geometry">
            <mxPoint x="158" y="102" as="sourcePoint" />
            <mxPoint x="818" y="102" as="targetPoint" />
            <Array as="points">
              <mxPoint x="398" y="102" />
            </Array>
          </mxGeometry>
        </mxCell>
        <mxCell id="qE7HTw5Iz3dnXzz-xxV6-436" value="storage account&lt;br&gt;Blob" style="rounded=1;whiteSpace=wrap;html=1;" vertex="1" parent="1">
          <mxGeometry x="128" y="595.5" width="290" height="115" as="geometry" />
        </mxCell>
        <mxCell id="qE7HTw5Iz3dnXzz-xxV6-437" value="" style="endArrow=none;dashed=1;html=1;dashPattern=1 3;strokeWidth=2;rounded=0;" edge="1" parent="1">
          <mxGeometry width="50" height="50" relative="1" as="geometry">
            <mxPoint x="98" y="122" as="sourcePoint" />
            <mxPoint x="58" y="82" as="targetPoint" />
          </mxGeometry>
        </mxCell>
        <mxCell id="qE7HTw5Iz3dnXzz-xxV6-438" value="" style="image;aspect=fixed;html=1;points=[];align=center;fontSize=12;image=img/lib/azure2/storage/Storage_Accounts.svg;" vertex="1" parent="1">
          <mxGeometry x="155.5" y="628.5" width="65" height="52" as="geometry" />
        </mxCell>
        <mxCell id="qE7HTw5Iz3dnXzz-xxV6-439" value="" style="image;aspect=fixed;html=1;points=[];align=center;fontSize=12;image=img/lib/azure2/general/Blob_Block.svg;" vertex="1" parent="1">
          <mxGeometry x="338" y="627" width="65" height="52" as="geometry" />
        </mxCell>
        <mxCell id="qE7HTw5Iz3dnXzz-xxV6-440" value="Internet" style="text;html=1;align=center;verticalAlign=middle;resizable=0;points=[];autosize=1;strokeColor=none;fillColor=none;" vertex="1" parent="1">
          <mxGeometry x="418" y="100" width="60" height="30" as="geometry" />
        </mxCell>
        <mxCell id="qE7HTw5Iz3dnXzz-xxV6-441" value="" style="image;aspect=fixed;html=1;points=[];align=center;fontSize=12;image=img/lib/azure2/general/Resource_Groups.svg;" vertex="1" parent="1">
          <mxGeometry x="40" y="60" width="68" height="64" as="geometry" />
        </mxCell>
        <mxCell id="qE7HTw5Iz3dnXzz-xxV6-442" value="Stap 1:&amp;nbsp;&lt;br&gt;Het aanmaken van een resource group en storage account" style="text;html=1;align=center;verticalAlign=middle;resizable=0;points=[];autosize=1;strokeColor=none;fillColor=none;" vertex="1" parent="1">
          <mxGeometry x="268" y="40" width="340" height="40" as="geometry" />
        </mxCell>
      </root>
    </mxGraphModel>
  </diagram>
</mxfile>
